<?xml version="1.0" encoding="UTF-8"?>
<svg id="Layer_1" xmlns="http://www.w3.org/2000/svg" version="1.1" viewBox="0 0 1721.24 441.03">
  <!-- Generator: Adobe Illustrator 30.6.0, SVG Export Plug-In . SVG Version: 2.1.4 Build 109)  -->
  <defs>
    <style>
      .st0 {
        fill: #e7ebf1;
      }

      .st1 {
        fill: #2456d6;
      }
    </style>
  </defs>
  <path class="st1" d="M149.65,385.57c6.03,3.73,13.64,3.73,19.67,0,24.1-14.92,86.45-56.56,117.88-105.94,37.89-59.55,31.61-87.91,31.05-208.19-.04-8.8-6.21-16.4-14.83-18.17-26.03-5.37-82.22-19.64-134.53-50.7-5.78-3.43-13.01-3.43-18.8,0C97.78,33.64,41.58,47.91,15.56,53.27c-8.62,1.78-14.79,9.37-14.83,18.17-.56,120.27-6.85,148.64,31.05,208.19,31.43,49.38,93.77,91.02,117.88,105.94Z"/>
  <path class="st0" d="M93.53,158.78l57.67,52.68c2.31,2.11,5.87,2.06,8.13-.12l89.28-86.37c13.62-13.18,36.39-3.53,36.39,15.43v2.96c0,5.84-2.38,11.42-6.58,15.47l-108.65,104.53c-8.32,8.01-21.49,7.99-29.8-.03l-75.83-73.26c-4.19-4.04-6.55-9.62-6.55-15.44h0c0-18.66,22.17-28.43,35.94-15.85Z"/>
  <g>
    <path d="M378.82,378.58v-210.5h78.69c16.11,0,29.67,2.83,40.69,8.48,11.02,5.65,19.35,13.54,25.01,23.66,5.65,10.12,8.48,21.88,8.48,35.25s-2.85,25.01-8.55,34.9c-5.7,9.89-14.11,17.52-25.22,22.89-11.11,5.37-24.77,8.05-40.97,8.05h-56.23v-31.22h51.28c9.51,0,17.28-1.34,23.31-4.03,6.03-2.68,10.5-6.62,13.42-11.8,2.92-5.18,4.38-11.44,4.38-18.79s-1.46-13.96-4.38-19.28c-2.92-5.32-7.42-9.39-13.49-12.22-6.08-2.83-13.92-4.24-23.52-4.24h-35.18v178.86h-37.72ZM497.21,378.58l-51.14-95.5h41.25l52.13,95.5h-42.24Z"/>
    <path d="M619.98,380.56c-10.83,0-20.32-2.31-28.47-6.92-8.15-4.61-14.46-11.37-18.93-20.27-4.47-8.9-6.71-19.66-6.71-32.28v-100.45h36.73v94.8c0,10.55,2.75,18.84,8.26,24.87,5.51,6.03,13.07,9.04,22.67,9.04,6.5,0,12.29-1.41,17.38-4.24,5.09-2.83,9.06-6.97,11.94-12.43,2.87-5.46,4.31-11.96,4.31-19.5v-92.54h36.87v157.95h-34.9l-.42-38.99h2.83c-4.43,13.75-10.97,24.02-19.64,30.8-8.67,6.78-19.31,10.17-31.93,10.17Z"/>
    <path d="M811.13,441.03c-12.62,0-23.62-1.6-32.99-4.8-9.37-3.2-17.05-7.56-23.03-13.07-5.98-5.51-10.29-11.75-12.93-18.72l31.08-11.16c1.7,2.92,4.03,5.93,6.99,9.04,2.97,3.11,6.92,5.67,11.87,7.7,4.95,2.02,11.23,3.04,18.86,3.04,11.4,0,20.53-2.66,27.41-7.98,6.87-5.32,10.31-13.63,10.31-24.94v-29.81h-3.11c-1.79,3.77-4.43,7.65-7.91,11.66-3.49,4-8.17,7.37-14.06,10.1-5.89,2.73-13.4,4.1-22.53,4.1-12.06,0-23.01-2.85-32.85-8.55-9.84-5.7-17.66-14.24-23.45-25.64-5.79-11.39-8.69-25.66-8.69-42.81s2.92-31.98,8.76-43.94c5.84-11.96,13.68-21.05,23.52-27.27,9.84-6.22,20.84-9.32,32.99-9.32,9.32,0,17,1.55,23.03,4.66,6.03,3.11,10.83,6.85,14.41,11.23,3.58,4.38,6.31,8.45,8.19,12.22h1.98v-26.14h36.03v158.37c0,14.03-3.2,25.64-9.61,34.83-6.41,9.18-15.17,16.01-26.28,20.49-11.11,4.47-23.78,6.71-38,6.71ZM811.41,347.22c8,0,14.79-1.91,20.34-5.72,5.56-3.81,9.79-9.35,12.71-16.6,2.92-7.25,4.38-15.92,4.38-26s-1.44-18.72-4.31-26.21c-2.87-7.49-7.09-13.33-12.64-17.52-5.56-4.19-12.39-6.29-20.49-6.29s-15.24,2.19-20.84,6.57c-5.6,4.38-9.82,10.31-12.64,17.8-2.83,7.49-4.24,16.04-4.24,25.64s1.43,18.18,4.31,25.43c2.87,7.25,7.11,12.88,12.71,16.88,5.6,4,12.5,6,20.7,6Z"/>
    <path d="M999.6,381.83c-16.3,0-30.45-2.54-42.45-7.63s-21.4-12.48-28.18-22.18c-6.78-9.7-10.46-21.47-11.02-35.32h37.16c.66,7.35,2.97,13.47,6.92,18.37,3.96,4.9,9.18,8.55,15.68,10.95s13.7,3.6,21.62,3.6,15.61-1.27,21.97-3.81,11.32-6.1,14.91-10.67c3.58-4.57,5.37-9.87,5.37-15.89,0-5.46-1.58-9.98-4.73-13.56-3.16-3.58-7.58-6.62-13.28-9.11-5.7-2.49-12.36-4.68-19.99-6.57l-23.88-6.22c-17.61-4.52-31.34-11.35-41.18-20.49-9.84-9.13-14.76-21.14-14.76-36.03,0-12.43,3.34-23.31,10.03-32.64,6.69-9.32,15.82-16.55,27.41-21.69,11.58-5.13,24.72-7.7,39.42-7.7s28.11,2.59,39.42,7.77c11.3,5.18,20.13,12.34,26.49,21.47,6.36,9.14,9.68,19.54,9.96,31.22h-36.59c-.94-9.04-4.97-16.04-12.08-20.98-7.11-4.94-16.37-7.42-27.76-7.42-7.91,0-14.72,1.2-20.42,3.6-5.7,2.4-10.08,5.68-13.14,9.82-3.06,4.15-4.59,8.9-4.59,14.27,0,5.84,1.81,10.64,5.44,14.41,3.62,3.77,8.19,6.78,13.7,9.04,5.51,2.26,11.09,4.1,16.74,5.51l19.64,5.09c7.82,1.88,15.4,4.38,22.75,7.49,7.35,3.11,13.96,7.04,19.85,11.8,5.88,4.76,10.57,10.53,14.06,17.31,3.48,6.78,5.23,14.74,5.23,23.88,0,12.34-3.16,23.19-9.46,32.56-6.31,9.37-15.4,16.67-27.27,21.9-11.87,5.23-26.19,7.84-42.95,7.84Z"/>
    <path d="M1180.71,381.83c-15.35,0-28.68-3.41-39.98-10.24-11.3-6.83-20.04-16.34-26.21-28.54-6.17-12.2-9.25-26.39-9.25-42.59s3.08-30.73,9.25-43.02c6.17-12.29,14.91-21.83,26.21-28.61,11.3-6.78,24.63-10.17,39.98-10.17s28.82,3.39,40.12,10.17c11.3,6.78,20.04,16.32,26.21,28.61,6.17,12.29,9.25,26.63,9.25,43.02s-3.09,30.4-9.25,42.59c-6.17,12.2-14.91,21.71-26.21,28.54-11.3,6.83-24.68,10.24-40.12,10.24ZM1180.71,352.02c8.57,0,15.7-2.31,21.4-6.92,5.7-4.61,9.94-10.83,12.71-18.65,2.78-7.82,4.17-16.53,4.17-26.14s-1.39-18.46-4.17-26.28c-2.78-7.82-7.02-14.03-12.71-18.65-5.7-4.61-12.83-6.92-21.4-6.92s-15.66,2.31-21.26,6.92c-5.61,4.62-9.8,10.81-12.57,18.58-2.78,7.77-4.17,16.55-4.17,26.35s1.39,18.32,4.17,26.14c2.78,7.82,6.97,14.03,12.57,18.65,5.6,4.62,12.69,6.92,21.26,6.92Z"/>
    <path d="M1325.1,286.05v92.54h-36.73v-157.95h34.75l.56,38.99h-2.97c4.43-13.66,10.92-23.9,19.5-30.73,8.57-6.83,19.31-10.24,32.21-10.24,10.83,0,20.29,2.31,28.4,6.92,8.1,4.62,14.39,11.35,18.86,20.2,4.47,8.85,6.71,19.64,6.71,32.35v100.45h-36.73v-94.8c0-10.55-2.73-18.84-8.19-24.87-5.46-6.03-13-9.04-22.6-9.04-6.5,0-12.29,1.41-17.38,4.24-5.09,2.83-9.09,6.95-12.01,12.36-2.92,5.42-4.38,11.94-4.38,19.57Z"/>
    <path d="M1509.47,381.83c-9.98,0-18.98-1.81-26.98-5.44-8.01-3.62-14.32-8.97-18.93-16.04-4.62-7.06-6.92-15.77-6.92-26.14,0-8.95,1.67-16.34,5.01-22.18,3.34-5.84,7.86-10.5,13.56-13.99,5.7-3.48,12.12-6.12,19.28-7.91,7.16-1.79,14.6-3.06,22.32-3.81,9.13-1.04,16.58-1.93,22.32-2.68,5.74-.75,9.96-1.98,12.64-3.67,2.68-1.7,4.03-4.33,4.03-7.91v-.71c0-5.18-1.04-9.58-3.11-13.21-2.07-3.62-5.16-6.4-9.25-8.34-4.1-1.93-9.16-2.9-15.19-2.9s-11.42.94-15.89,2.83c-4.47,1.88-8.12,4.33-10.95,7.35-2.83,3.01-4.9,6.26-6.22,9.75l-34.05-6.92c3.11-9.32,7.91-17.02,14.41-23.1,6.5-6.08,14.25-10.62,23.24-13.63,8.99-3.01,18.77-4.52,29.32-4.52,7.44,0,14.95.87,22.53,2.61,7.58,1.74,14.53,4.69,20.84,8.83,6.31,4.15,11.39,9.7,15.26,16.67,3.86,6.97,5.79,15.73,5.79,26.28v105.53h-35.18v-21.76h-1.41c-2.36,4.43-5.58,8.55-9.68,12.36-4.1,3.81-9.18,6.88-15.26,9.18-6.07,2.31-13.26,3.46-21.54,3.46ZM1518.93,354.57c7.63,0,14.2-1.5,19.71-4.52,5.51-3.01,9.79-6.99,12.86-11.94,3.06-4.95,4.59-10.34,4.59-16.18v-18.65c-1.23.94-3.27,1.84-6.15,2.68-2.87.85-6.08,1.6-9.61,2.26-3.53.66-7.02,1.23-10.46,1.7-3.44.47-6.33.85-8.69,1.13-5.46.75-10.41,1.98-14.83,3.67-4.43,1.7-7.89,4.08-10.38,7.13-2.5,3.06-3.74,7.04-3.74,11.94,0,4.52,1.15,8.31,3.46,11.37,2.31,3.06,5.46,5.39,9.47,6.99,4,1.6,8.59,2.4,13.77,2.4Z"/>
    <path d="M1631.53,378.58v-157.95h35.6v26.42h1.7c2.83-9.13,7.77-16.18,14.83-21.12,7.06-4.94,15.12-7.42,24.16-7.42,2.07,0,4.38.09,6.92.28,2.54.19,4.71.42,6.5.71v33.77c-1.51-.47-3.96-.89-7.35-1.27-3.39-.38-6.74-.56-10.03-.56-6.78,0-12.88,1.46-18.29,4.38-5.42,2.92-9.66,6.95-12.71,12.08-3.06,5.13-4.59,11.04-4.59,17.73v92.96h-36.73Z"/>
  </g>
</svg>