<svg xmlns="http://www.w3.org/2000/svg" viewBox="0 0 318.97 388.37" role="img" aria-label="Token Risk Scanner">
  <path fill="#2456d6" d="M149.65,385.57c6.03,3.73,13.64,3.73,19.67,0,24.1-14.92,86.45-56.56,117.88-105.94,37.89-59.55,31.61-87.91,31.05-208.19-.04-8.8-6.21-16.4-14.83-18.17-26.03-5.37-82.22-19.64-134.53-50.7-5.78-3.43-13.01-3.43-18.8,0C97.78,33.64,41.58,47.91,15.56,53.27c-8.62,1.78-14.79,9.37-14.83,18.17-.56,120.27-6.85,148.64,31.05,208.19,31.43,49.38,93.77,91.02,117.88,105.94Z"/>
  <path fill="#e7ebf1" d="M93.53,158.78l57.67,52.68c2.31,2.11,5.87,2.06,8.13-.12l89.28-86.37c13.62-13.18,36.39-3.53,36.39,15.43v2.96c0,5.84-2.38,11.42-6.58,15.47l-108.65,104.53c-8.32,8.01-21.49,7.99-29.8-.03l-75.83-73.26c-4.19-4.04-6.55-9.62-6.55-15.44h0c0-18.66,22.17-28.43,35.94-15.85Z"/>
</svg>
